<?xml version="1.0" encoding="utf-8"?>
<!-- Generator: Adobe Illustrator 24.1.2, SVG Export Plug-In . SVG Version: 6.00 Build 0)  -->
<svg version="1.1" id="Layer_1" xmlns="http://www.w3.org/2000/svg" xmlns:xlink="http://www.w3.org/1999/xlink" x="0px" y="0px"
	 viewBox="0 0 179 40" style="enable-background:new 0 0 179 40;" xml:space="preserve">
<style type="text/css">
	.st0{display:none;}
	.st1{display:inline;fill:#EA1111;}
	.st2{display:inline;}
	.st3{opacity:0.3185;fill-rule:evenodd;clip-rule:evenodd;fill:#EA1111;enable-background:new    ;}
	.st4{fill:#EA1111;}
	.st5{fill:#FFFFFF;}
	.st6{font-family:'Arial-Black';}
	.st7{font-size:20px;}
	.st8{letter-spacing:-1;}
</style>
<desc>Created with Sketch.</desc>
<g id="Symbols">
	<g id="Group-7" class="st0">
		<path id="ASD" class="st1" d="M62.8,17.3c-0.3-1.4-1.3-2.1-3-2.1c-0.9,0-1.5,0.2-2,0.5s-0.7,0.8-0.7,1.2s0.2,0.9,0.5,1.1
			s0.8,0.5,1.4,0.8l3.5,1.4c1.2,0.5,2.1,1.1,2.8,1.8c0.7,0.7,1,1.6,1,2.7c0,1.5-0.5,2.6-1.6,3.5c-1.1,0.9-2.7,1.3-4.7,1.3
			c-1.8,0-3.3-0.4-4.4-1.3c-1.3-1-1.9-2.3-2-4.1h2.9c0,1.3,0.7,2.2,2.1,2.5c0.4,0.1,1,0.2,1.7,0.2c0.7,0,1.3-0.2,1.9-0.5
			c0.6-0.3,0.9-0.8,0.9-1.4c0-0.6-0.2-1-0.5-1.3c-0.3-0.3-0.8-0.6-1.5-0.9l-3.2-1.3c-1.3-0.5-2.2-1-2.9-1.7c-0.7-0.7-1-1.5-1-2.7
			c0-1.4,0.5-2.4,1.6-3.2c1.1-0.8,2.5-1.2,4.3-1.2c1.8,0,3.2,0.4,4.2,1.3c1,0.8,1.6,2,1.7,3.5H62.8z M77.1,28.7
			c-1.1,0.4-2,0.6-2.6,0.6c-0.6,0-1.2-0.1-1.7-0.2c-0.5-0.2-0.9-0.4-1.3-0.7c-0.8-0.7-1.2-1.6-1.2-2.8v-6.8h-1.7v-2h1.7v-3.2h3v3.2
			h3.3v2h-3.3v6.7c0,1,0.5,1.5,1.4,1.5c0.5,0,1.1-0.1,1.9-0.4L77.1,28.7z M84.2,21.9c1,0,2.1,0.2,3.3,0.5v-1.2
			c0-0.9-0.2-1.5-0.5-1.9c-0.3-0.4-0.9-0.6-1.7-0.6s-1.4,0.2-1.8,0.5c-0.4,0.3-0.6,0.7-0.6,1.3h-3.2c0-1.4,0.5-2.4,1.5-3
			c1-0.6,2.3-0.9,4.1-0.9c2.5,0,4.1,0.9,4.8,2.6c0.3,0.6,0.4,1.3,0.4,2.1V29h-2.6l-0.2-1.6c-0.8,1.3-2,2-3.6,2
			c-1.6,0-2.8-0.4-3.7-1.1c-0.8-0.7-1.2-1.7-1.2-2.8s0.4-2,1.3-2.6S82.6,21.9,84.2,21.9z M87.5,24.3c-1-0.3-1.9-0.4-2.8-0.4
			c-1.6,0-2.4,0.5-2.4,1.6c0,0.5,0.2,0.8,0.6,1.2c0.4,0.3,1,0.5,1.8,0.5c0.8,0,1.5-0.3,2-0.8S87.5,25.1,87.5,24.3z M97.7,19.3
			c0.7-1.8,1.8-2.6,3.3-2.6c0.3,0,0.6,0.1,1.1,0.2l0,3c-0.5-0.1-0.9-0.1-1.4-0.1c-2,0-3,1.4-3,4.1V29h-2.9V16.8h2.9V19.3z
			 M109.2,21.9c1,0,2.1,0.2,3.3,0.5v-1.2c0-0.9-0.2-1.5-0.5-1.9c-0.3-0.4-0.9-0.6-1.7-0.6s-1.4,0.2-1.8,0.5
			c-0.4,0.3-0.6,0.7-0.6,1.3h-3.2c0-1.4,0.5-2.4,1.5-3c1-0.6,2.3-0.9,4.1-0.9c2.5,0,4.1,0.9,4.8,2.6c0.3,0.6,0.4,1.3,0.4,2.1V29
			h-2.6l-0.2-1.6c-0.8,1.3-2,2-3.6,2c-1.6,0-2.8-0.4-3.7-1.1c-0.8-0.7-1.2-1.7-1.2-2.8s0.4-2,1.3-2.6S107.6,21.9,109.2,21.9z
			 M112.5,24.3c-1-0.3-1.9-0.4-2.8-0.4c-1.6,0-2.4,0.5-2.4,1.6c0,0.5,0.2,0.8,0.6,1.2c0.4,0.3,1,0.5,1.8,0.5c0.8,0,1.5-0.3,2-0.8
			S112.5,25.1,112.5,24.3z M127.7,27.1c-0.8,1.5-1.9,2.2-3.5,2.2c-1.6,0-2.8-0.6-3.9-1.8c-1.1-1.2-1.6-2.8-1.6-4.7s0.5-3.4,1.6-4.6
			c1-1.2,2.3-1.7,3.8-1.7c1.5,0,2.7,0.6,3.4,1.8v-6.5h3V29H128L127.7,27.1z M124.6,19.2c-0.8,0-1.5,0.3-2.1,1
			c-0.6,0.7-0.8,1.6-0.8,2.7s0.3,2,0.8,2.7c0.6,0.7,1.3,1,2.2,1c0.7,0,1.4-0.3,1.9-0.8c0.6-0.6,0.9-1.3,0.9-2.2V22
			c0-0.9-0.3-1.6-0.9-2.1C126.1,19.4,125.4,19.2,124.6,19.2z M145.9,19.1c0.8-1.8,2.2-2.6,4.1-2.6c1.5,0,2.6,0.5,3.4,1.5
			c0.8,0.9,1.2,2.2,1.2,3.9V29h-3v-7.1c0-0.9-0.2-1.6-0.6-2c-0.4-0.5-1-0.7-1.8-0.7c-0.8,0-1.4,0.3-1.9,1c-0.5,0.7-0.8,1.7-0.8,3.1
			V29h-2.9v-7.1c0-0.9-0.2-1.6-0.7-2c-0.4-0.5-1-0.7-1.8-0.7s-1.5,0.3-2,1.1c-0.6,0.7-0.9,1.7-0.9,3.1V29h-2.9V16.9h2.6L138,19
			c0.8-1.6,2.1-2.4,3.9-2.4c1,0,1.9,0.2,2.5,0.7S145.6,18.3,145.9,19.1z M159.1,16.8h2.9V29h-2.9V16.8z M158.7,12.9
			c0-0.5,0.2-1,0.5-1.3c0.3-0.3,0.8-0.5,1.4-0.5c0.6,0,1,0.2,1.3,0.5c0.3,0.3,0.5,0.7,0.5,1.3c0,0.5-0.2,1-0.5,1.3
			c-0.3,0.3-0.8,0.5-1.3,0.5c-0.6,0-1-0.2-1.4-0.5S158.7,13.5,158.7,12.9z M169.9,19c0.8-1.6,2.1-2.4,3.8-2.4c1.5,0,2.6,0.5,3.4,1.5
			c0.8,1,1.1,2.3,1.1,3.9V29h-2.9v-7.1c0-0.9-0.2-1.6-0.7-2c-0.4-0.5-1-0.7-1.8-0.7s-1.5,0.3-2,1.1c-0.6,0.7-0.9,1.7-0.9,3.1V29h-3
			V16.9h2.6L169.9,19z"/>
		<g id="Group" class="st2">
			<circle id="Oval" class="st3" cx="20" cy="20" r="20"/>
			<path id="S" class="st4" d="M22.4,23.2c0-0.5-0.2-0.9-0.5-1.2s-1-0.6-1.9-0.9s-1.6-0.6-2.2-0.9c-1.8-0.9-2.8-2.1-2.8-3.7
				c0-0.8,0.2-1.5,0.7-2.1s1.1-1.1,1.9-1.4s1.8-0.5,2.8-0.5c1,0,1.9,0.2,2.7,0.5s1.4,0.9,1.9,1.6s0.7,1.4,0.7,2.3h-3.4
				c0-0.6-0.2-1-0.5-1.3s-0.8-0.5-1.4-0.5c-0.6,0-1.1,0.1-1.5,0.4s-0.5,0.6-0.5,1c0,0.4,0.2,0.7,0.6,1s1.1,0.6,2.1,0.9
				c1,0.3,1.8,0.7,2.4,1c1.5,0.9,2.3,2.1,2.3,3.7c0,1.2-0.5,2.2-1.4,2.9s-2.2,1.1-3.9,1.1c-1.2,0-2.2-0.2-3.1-0.6s-1.6-1-2.1-1.7
				s-0.7-1.5-0.7-2.5h3.4c0,0.8,0.2,1.3,0.6,1.7s1,0.5,1.9,0.5c0.6,0,1-0.1,1.3-0.4S22.4,23.7,22.4,23.2z"/>
		</g>
	</g>
	
		<image style="overflow:visible;" width="586" height="566" xlink:href="../../../../../../../Users/webst/Downloads/jempol.png"  transform="matrix(6.308193e-02 0 0 6.677365e-02 2.6518 0.9302)">
	</image>
	<text transform="matrix(1 0 0 1 45.3956 27.3344)" class="st5 st6 st7 st8">SI - JEMPOL</text>
</g>
</svg>
