<?xml version="1.0" encoding="utf-8"?>
<!-- Generator: Adobe Illustrator 24.1.2, SVG Export Plug-In . SVG Version: 6.00 Build 0)  -->
<svg version="1.1" id="Layer_1" xmlns="http://www.w3.org/2000/svg" xmlns:xlink="http://www.w3.org/1999/xlink" x="0px" y="0px"
	 viewBox="0 0 40 40" style="enable-background:new 0 0 40 40;" xml:space="preserve">
<style type="text/css">
	.st0{opacity:0.3185;fill-rule:evenodd;clip-rule:evenodd;fill:#FFFFFF;enable-background:new    ;}
	.st1{fill:#FFFFFF;}
</style>
<desc>Created with Sketch.</desc>
<g id="Symbols">
	<g id="Group-7">
		<g id="Group">
			<circle id="Oval" class="st0" cx="20" cy="20" r="20"/>
			<path id="S" class="st1" d="M22.4,23.2c0-0.5-0.2-0.9-0.5-1.2s-1-0.6-1.9-0.9s-1.6-0.6-2.2-0.9c-1.8-0.9-2.8-2.1-2.8-3.7
				c0-0.8,0.2-1.5,0.7-2.1s1.1-1.1,1.9-1.4s1.8-0.5,2.8-0.5c1,0,1.9,0.2,2.7,0.5s1.4,0.9,1.9,1.6s0.7,1.4,0.7,2.3h-3.4
				c0-0.6-0.2-1-0.5-1.3s-0.8-0.5-1.4-0.5c-0.6,0-1.1,0.1-1.5,0.4s-0.5,0.6-0.5,1c0,0.4,0.2,0.7,0.6,1s1.1,0.6,2.1,0.9
				c1,0.3,1.8,0.7,2.4,1c1.5,0.9,2.3,2.1,2.3,3.7c0,1.2-0.5,2.2-1.4,2.9s-2.2,1.1-3.9,1.1c-1.2,0-2.2-0.2-3.1-0.6s-1.6-1-2.1-1.7
				s-0.7-1.5-0.7-2.5h3.4c0,0.8,0.2,1.3,0.6,1.7s1,0.5,1.9,0.5c0.6,0,1-0.1,1.3-0.4S22.4,23.7,22.4,23.2z"/>
		</g>
	</g>
</g>
<image style="overflow:visible;" width="586" height="566" xlink:href="../../../../../../../Users/webst/Downloads/jempol.png"  transform="matrix(4.981413e-02 0 0 4.981413e-02 5.5955 5.5358)">
</image>
</svg>
